<svg width="336.640625px" height="121.39999999999999px" xmlns="http://www.w3.org/2000/svg" viewBox="81.6796875 14.300000000000004 336.640625 121.39999999999999" style="background: rgba(0, 0, 0, 0);" preserveAspectRatio="xMidYMid"><defs>
  <filter id="editing-scratch" x="-100%" y="-100%" width="300%" height="300%">
    <!-- COLOR -->
    <feFlood flood-color="#ddd" flood-opacity="0.75" result="COLOR-blu"></feFlood>
    <feFlood flood-color="#666" flood-opacity="0.4" result="COLOR-red"></feFlood>
    <!-- COLOR END -->

    <!-- Texture -->
    <feTurbulence baseFrequency=".05" type="fractalNoise" numOctaves="3" seed="0" result="Texture_10"></feTurbulence>
    <feColorMatrix type="matrix" values="0 0 0 0 0,
    0 0 0 0 0,
    0 0 0 0 0,
    0 0 0 -2.1 1.1" in="Texture_10" result="Texture_20"></feColorMatrix>

    <feColorMatrix result="Texture_30" type="matrix" values="0 0 0 0 0,
    0 0 0 0 0,
    0 0 0 0 0,
    0 0 0 -1.7 1.8" in="Texture_10"></feColorMatrix>
    <!-- Texture -->

    <!-- FILL -->
    <feOffset dx="-3" dy="4" in="SourceAlpha" result="FILL_10"></feOffset>
    <feDisplacementMap scale="17" in="FILL_10" in2="Texture_10" result="FILL_20"></feDisplacementMap>
    <feComposite operator="in" in="Texture_30" in2="FILL_20" result="FILL_40"></feComposite>
    <feComposite operator="in" in="COLOR-blu" in2="FILL_40" result="FILL_50"></feComposite>
    <!-- FILL END-->

    <!-- OUTLINE -->
    <feMorphology operator="dilate" radius="3" in="SourceGraphic" result="OUTLINE_10"></feMorphology>
    <feComposite operator="out" in="OUTLINE_10" in2="SourceGraphic" result="OUTLINE_20"></feComposite>
    <feDisplacementMap scale="7" in="OUTLINE_20" in2="Texture_10" result="OUTLINE_30"></feDisplacementMap>
    <feComposite operator="arithmetic" k2="-1" k3="1" in="Texture_20" in2="OUTLINE_30" result="OUTLINE_40"></feComposite>
    <!-- OUTLINE END-->

    <!-- BEVEL OUTLINE -->
    <feConvolveMatrix order="8,8" divisor="1" kernelMatrix="1 0 0 0 0 0 0 0 0 1 0 0 0 0 0 0 0 0 1 0 0 0 0 0 0 0 0 1 0 0 0 0 0 0 0 0 1 0 0 0 0 0 0 0 0 1 0 0 0 0 0 0 0 0 1 0 0 0 0 0 0 0 0 1 " in="SourceGraphic" result="BEVEL_10"></feConvolveMatrix>
    <feMorphology operator="dilate" radius="2" in="BEVEL_10" result="BEVEL_20"></feMorphology>
    <feComposite operator="out" in="BEVEL_20" in2="BEVEL_10" result="BEVEL_30"></feComposite>
    <feDisplacementMap scale="7" in="BEVEL_30" in2="Texture_10" result="BEVEL_40"></feDisplacementMap>
    <feComposite operator="arithmetic" k2="-1" k3="1" in="Texture_20" in2="BEVEL_40" result="BEVEL_50"></feComposite>
    <feOffset dx="-7" dy="-7" in="BEVEL_50" result="BEVEL_60"></feOffset>
    <feComposite operator="out" in="BEVEL_60" in2="OUTLINE_10" result="BEVEL_70"></feComposite>
    <!-- BEVEL OUTLINE END -->

    <!-- BEVEL FILL -->
    <feOffset dx="-9" dy="-9" in="BEVEL_10" result="BEVEL-FILL_10"></feOffset>
    <feComposite operator="out" in="BEVEL-FILL_10" in2="OUTLINE_10" result="BEVEL-FILL_20"></feComposite>
    <feDisplacementMap scale="17" in="BEVEL-FILL_20" in2="Texture_10" result="BEVEL-FILL_30"></feDisplacementMap>
    <feComposite operator="in" in="COLOR-red" in2="BEVEL-FILL_30" result="BEVEL-FILL_50"></feComposite> <!-- -->
    <!-- BEVEL FILL END-->

    <feMerge result="merge2">
     <feMergeNode in="BEVEL-FILL_50"></feMergeNode>
     <feMergeNode in="BEVEL_70"></feMergeNode>
     <feMergeNode in="FILL_50"></feMergeNode>
      <feMergeNode in="OUTLINE_40"></feMergeNode>
    </feMerge>
  </filter>
</defs>
<g filter="url(#editing-scratch)"><g transform="translate(134.51497101783752, 104.76000022888184)"><path d="M28.42-9.86L28.42-9.86L28.42-9.86Q29.63-8.32 29.63-5.82L29.63-5.82L29.63-5.82Q29.63-2.37 27.07-0.54L27.07-0.54L27.07-0.54Q24.51 1.28 20.48 1.28L20.48 1.28L20.48 1.28Q18.18 1.28 14.66 0.77L14.66 0.77L14.66 0.77Q7.74-0.32 5.63-0.32L5.63-0.32L5.63-0.32Q3.52-0.32 2.69-0.22L2.69-0.22L2.69-0.22Q1.86-0.13 0.51 0L0.51 0L8.38-42.24L35.97-42.24L35.97-42.24Q35.97-38.34 34.08-36.29L34.08-36.29L34.08-36.29Q32.19-34.24 28.48-34.24L28.48-34.24L28.48-34.24Q24.77-34.24 20.99-35.97L20.99-35.97L19.01-24.77L30.40-24.77L30.40-24.77Q30.40-21.38 28.74-19.49L28.74-19.49L28.74-19.49Q27.07-17.60 24.29-17.60L24.29-17.60L24.29-17.60Q21.50-17.60 19.78-18.24L19.78-18.24L19.78-18.24Q18.05-18.88 17.86-19.07L17.86-19.07L15.55-6.98L15.55-6.98Q17.09-6.78 19.97-6.78L19.97-6.78L19.97-6.78Q24.90-6.78 28.42-9.86ZM62.59 1.28L62.59 1.28L62.59 1.28Q54.85 1.28 54.85-4.74L54.85-4.74L54.85-4.74Q54.91-6.40 55.42-9.22L55.42-9.22L56.58-15.10L56.58-15.10Q58.30-23.42 58.30-25.28L58.30-25.28L58.30-25.28Q58.30-28.99 56.13-28.99L56.13-28.99L56.13-28.99Q52.48-28.99 50.56-19.46L50.56-19.46L46.78 0L33.92 1.28L40.58-32.70L51.07-33.92L50.05-27.65L50.05-27.65Q53.06-33.92 62.27-33.92L62.27-33.92L62.27-33.92Q66.75-33.92 68.64-32.03L68.64-32.03L68.64-32.03Q70.53-30.14 70.53-25.92L70.53-25.92L70.53-25.92Q70.53-21.95 68.48-12.67L68.48-12.67L68.48-12.67Q67.52-8.51 67.52-6.94L67.52-6.94L67.52-6.94Q67.52-5.38 68.38-4.48L68.38-4.48L68.38-4.48Q69.25-3.58 70.53-3.46L70.53-3.46L70.53-3.46Q69.89-1.28 67.68 0L67.68 0L67.68 0Q65.47 1.28 62.59 1.28ZM91.01-3.52L91.01-3.52L91.01-3.52Q89.02 1.28 82.69 1.28L82.69 1.28L82.69 1.28Q79.42 1.28 77.38-0.96L77.38-0.96L77.38-0.96Q75.65-2.94 75.65-4.93L75.65-4.93L75.65-4.93Q75.65-10.11 78.02-20.22L78.02-20.22L80.38-32.64L93.38-33.92L89.47-13.70L89.47-13.70Q88.38-8.96 88.38-7.30L88.38-7.30L88.38-7.30Q88.38-3.65 91.01-3.52ZM81.54-41.54L81.54-41.54L81.54-41.54Q81.54-44.03 83.62-45.38L83.62-45.38L83.62-45.38Q85.70-46.72 88.70-46.72L88.70-46.72L88.70-46.72Q91.71-46.72 93.54-45.38L93.54-45.38L93.54-45.38Q95.36-44.03 95.36-41.54L95.36-41.54L95.36-41.54Q95.36-39.04 93.34-37.76L93.34-37.76L93.34-37.76Q91.33-36.48 88.32-36.48L88.32-36.48L88.32-36.48Q85.31-36.48 83.42-37.76L83.42-37.76L83.42-37.76Q81.54-39.04 81.54-41.54ZM100.99-26.75L100.99-26.75L100.99-26.75Q103.17-29.82 106.46-31.87L106.46-31.87L106.46-31.87Q109.76-33.92 113.79-33.92L113.79-33.92L113.79-33.92Q117.82-33.92 119.74-32.64L119.74-32.64L132.29-33.92L127.94-9.34L127.94-9.34Q125.70 3.20 120.96 8.13L120.96 8.13L120.96 8.13Q116.42 12.80 107.58 12.80L107.58 12.80L107.58 12.80Q100.86 12.80 97.02 10.69L97.02 10.69L97.02 10.69Q93.18 8.58 93.18 5.06L93.18 5.06L93.18 5.06Q93.18 2.43 95.17 0.93L95.17 0.93L95.17 0.93Q97.15-0.58 100.22-0.58L100.22-0.58L100.22-0.58Q102.91-0.58 104.96 0.64L104.96 0.64L104.96 0.64Q106.18 1.28 106.75 2.18L106.75 2.18L106.75 2.18Q105.28 3.46 105.28 5.57L105.28 5.57L105.28 5.57Q105.28 8.32 107.84 8.32L107.84 8.32L107.84 8.32Q112.13 8.32 114.56-1.79L114.56-1.79L114.56-1.79Q115.26-4.54 115.84-7.30L115.84-7.30L115.84-7.30Q112.96-3.78 106.43-3.78L106.43-3.78L106.43-3.78Q101.89-3.78 99.26-5.95L99.26-5.95L99.26-5.95Q96.64-8.13 96.64-13.25L96.64-13.25L96.64-13.25Q96.64-16.45 97.73-20.06L97.73-20.06L97.73-20.06Q98.82-23.68 100.99-26.75ZM109.31-13.06L109.31-13.06L109.31-13.06Q109.31-8.70 111.55-8.70L111.55-8.70L111.55-8.70Q113.09-8.70 114.56-10.37L114.56-10.37L114.56-10.37Q115.71-11.71 116.16-13.70L116.16-13.70L119.42-30.14L119.42-30.14Q119.10-30.21 118.78-30.34L118.78-30.34L118.78-30.34Q118.14-30.59 117.31-30.59L117.31-30.59L117.31-30.59Q113.41-30.59 111.10-24.19L111.10-24.19L111.10-24.19Q109.31-19.20 109.31-13.06ZM180.86 1.28L180.86 1.28L180.86 1.28Q173.12 1.28 173.12-4.74L173.12-4.74L173.12-4.74Q173.12-7.36 174.24-12.45L174.24-12.45L174.24-12.45Q175.36-17.54 175.74-19.58L175.74-19.58L175.74-19.58Q176.64-24.26 176.64-25.73L176.64-25.73L176.64-25.73Q176.64-28.99 174.21-28.99L174.21-28.99L174.21-28.99Q172.61-28.99 171.07-26.78L171.07-26.78L171.07-26.78Q169.54-24.58 168.83-20.16L168.83-20.16L164.86 0L152.38 1.28L155.84-16.13L155.84-16.13Q156.42-19.01 156.93-22.27L156.93-22.27L156.93-22.27Q157.44-25.54 157.44-26.05L157.44-26.05L157.44-26.05Q157.44-28.99 155.26-28.99L155.26-28.99L155.26-28.99Q153.79-28.99 152.19-26.82L152.19-26.82L152.19-26.82Q150.59-24.64 149.70-20.16L149.70-20.16L145.79 0L133.18 1.28L139.90-32.64L150.34-33.92L149.25-27.46L149.25-27.46Q150.91-30.91 153.98-32.42L153.98-32.42L153.98-32.42Q157.06-33.92 161.86-33.92L161.86-33.92L161.86-33.92Q164.61-33.92 166.40-32.58L166.40-32.58L166.40-32.58Q168.19-31.23 168.77-29.06L168.77-29.06L168.77-29.06Q169.86-31.30 172.64-32.61L172.64-32.61L172.64-32.61Q175.42-33.92 178.85-33.92L178.85-33.92L178.85-33.92Q182.27-33.92 183.97-33.18L183.97-33.18L183.97-33.18Q185.66-32.45 186.69-31.23L186.69-31.23L186.69-31.23Q188.42-28.99 188.42-24.90L188.42-24.90L188.42-24.90Q188.42-20.86 186.69-12.48L186.69-12.48L186.69-12.48Q185.79-8.38 185.79-6.88L185.79-6.88L185.79-6.88Q185.79-5.38 186.66-4.48L186.66-4.48L186.66-4.48Q187.52-3.58 188.80-3.46L188.80-3.46L188.80-3.46Q188.16-1.28 185.95 0L185.95 0L185.95 0Q183.74 1.28 180.86 1.28ZM196.51-1.92L196.51-1.92L196.51-1.92Q195.01-3.58 194.34-6.21L194.34-6.21L194.34-6.21Q193.66-8.83 193.66-13.12L193.66-13.12L193.66-13.12Q193.66-17.41 195.14-21.31L195.14-21.31L195.14-21.31Q196.61-25.22 199.30-28.03L199.30-28.03L199.30-28.03Q204.80-33.92 213.89-33.92L213.89-33.92L213.89-33.92Q217.15-33.92 219.52-32.83L219.52-32.83L230.46-33.92L225.73-8.96L225.73-8.96Q225.54-8.19 225.54-6.78L225.54-6.78L225.54-6.78Q225.54-5.38 226.40-4.48L226.40-4.48L226.40-4.48Q227.26-3.58 228.54-3.46L228.54-3.46L228.54-3.46Q227.90-1.28 225.57 0L225.57 0L225.57 0Q223.23 1.28 220.61 1.28L220.61 1.28L220.61 1.28Q217.98 1.28 216.22 0.29L216.22 0.29L216.22 0.29Q214.46-0.70 213.95-2.37L213.95-2.37L213.95-2.37Q212.93-0.77 210.75 0.26L210.75 0.26L210.75 0.26Q208.58 1.28 205.66 1.28L205.66 1.28L205.66 1.28Q202.75 1.28 200.38 0.51L200.38 0.51L200.38 0.51Q198.02-0.26 196.51-1.92ZM210.02-27.90L210.02-27.90L210.02-27.90Q209.28-26.75 208.64-24.80L208.64-24.80L208.64-24.80Q208-22.85 206.94-17.63L206.94-17.63L206.94-17.63Q205.89-12.42 205.89-8.70L205.89-8.70L205.89-8.70Q205.89-4.99 206.46-3.90L206.46-3.90L206.46-3.90Q207.04-2.82 208.06-2.82L208.06-2.82L208.06-2.82Q210.11-2.82 211.62-4.77L211.62-4.77L211.62-4.77Q213.12-6.72 213.70-10.18L213.70-10.18L217.09-28.93L217.09-28.93Q215.74-30.08 214.18-30.08L214.18-30.08L214.18-30.08Q212.61-30.08 211.68-29.57L211.68-29.57L211.68-29.57Q210.75-29.06 210.02-27.90Z" fill="#000"></path></g></g><style>text {
  font-size: 64px;
  font-family: Arial Black;
  dominant-baseline: central;
  text-anchor: middle;
}</style></svg>